<?xml version="1.0" encoding="UTF-8"?>
<svg version="1.1" xmlns="http://www.w3.org/2000/svg" width="225" height="225">
<path d="M0 0 C1.11234512 -0.00021904 1.11234512 -0.00021904 2.24716187 -0.0004425 C4.70370385 0.00025539 7.16017045 0.00804206 9.61669922 0.01586914 C11.31777912 0.01773376 13.01885956 0.01915745 14.71994019 0.02015686 C19.20145139 0.02397861 23.68293029 0.03380599 28.16442871 0.04486084 C32.73575402 0.05508231 37.30708453 0.05965606 41.87841797 0.06469727 C50.85108843 0.07542854 59.82373489 0.09250088 68.79638672 0.11352539 C70.171429 4.44388187 68.8072474 6.95418985 66.83154297 10.84790039 C66.51938339 11.4859259 66.20722382 12.12395142 65.88560486 12.78131104 C64.88773951 14.81437974 63.87363234 16.83883768 62.85888672 18.86352539 C62.17876333 20.24189585 61.49971371 21.6207967 60.82177734 23.00024414 C59.15903633 26.37761473 57.48168439 29.74735754 55.79638672 33.11352539 C50.81309586 32.46940129 46.69485014 30.33930533 42.22607422 28.17602539 C41.39036896 27.77706055 40.5546637 27.3780957 39.69363403 26.96704102 C37.01699419 25.68779959 34.34413708 24.40087036 31.67138672 23.11352539 C29.05857383 21.86176506 26.44501278 20.61157753 23.83135986 19.36157227 C22.0962446 18.53037543 20.36214973 17.69704512 18.62908936 16.86157227 C14.20051438 14.7285521 9.76041733 12.62925884 5.28955078 10.58618164 C4.40985626 10.18077148 3.53016174 9.77536133 2.62380981 9.35766602 C0.9458329 8.58604494 -0.73595143 7.82263561 -2.42190552 7.06860352 C-3.16826263 6.7237793 -3.91461975 6.37895508 -4.68359375 6.02368164 C-5.34148895 5.72598877 -5.99938416 5.4282959 -6.67721558 5.12158203 C-8.20361328 4.11352539 -8.20361328 4.11352539 -9.20361328 1.11352539 C-6.24383744 -0.36636253 -3.24383319 -0.0165786 0 0 Z " fill="#9BBE43" transform="translate(105.20361328125,51.886474609375)"/>
<path d="M0 0 C4.58554851 1.42691764 8.88691528 3.24696341 13.21484375 5.30859375 C13.89967331 5.63154922 14.58450287 5.9545047 15.29008484 6.2872467 C17.50747287 7.3340195 19.72251531 8.38565258 21.9375 9.4375 C23.46326358 10.15909806 24.98914323 10.88045076 26.51513672 11.6015625 C38.69530932 17.36200949 50.85743252 23.1607038 63 29 C63 30.32 63 31.64 63 33 C37.59 33 12.18 33 -14 33 C-15.17068695 29.48793915 -14.54965076 28.48222257 -13.00442505 25.26425171 C-12.54203934 24.34067368 -12.54203934 24.34067368 -12.0703125 23.3984375 C-11.60563065 22.44283432 -11.60563065 22.44283432 -11.13156128 21.46792603 C-10.1385656 19.43230204 -9.13174515 17.40385312 -8.125 15.375 C-7.45356575 14.0004204 -6.78298219 12.62542491 -6.11328125 11.25 C-1.1915054 1.1915054 -1.1915054 1.1915054 0 0 Z " fill="#DA3383" transform="translate(42,140)"/>
<path d="M0 0 C-0.63258878 4.46639576 -2.36330055 8.18313152 -4.3515625 12.1796875 C-4.68868256 12.86950714 -5.02580261 13.55932678 -5.37313843 14.27005005 C-6.45165533 16.4744158 -7.53796286 18.67482522 -8.625 20.875 C-10.03608802 23.74630234 -11.44402777 26.61914196 -12.8515625 29.4921875 C-13.36943329 30.54717438 -13.36943329 30.54717438 -13.89776611 31.62347412 C-17.3640952 38.70311229 -20.6962264 45.84334553 -24 53 C-27.98034954 52.36768471 -31.24768169 51.11874815 -34.89453125 49.41796875 C-36.01537109 48.89783203 -37.13621094 48.37769531 -38.29101562 47.84179688 C-39.45310547 47.29587891 -40.61519531 46.74996094 -41.8125 46.1875 C-42.96298828 45.65318359 -44.11347656 45.11886719 -45.29882812 44.56835938 C-51.244747 41.79814044 -57.15175505 38.97087966 -63 36 C-62.67333984 34.12060547 -62.67333984 34.12060547 -62 32 C-59.88139793 30.52593039 -57.89303028 29.31895251 -55.625 28.125 C-55.05394531 27.81175781 -54.48289062 27.49851563 -53.89453125 27.17578125 C-52.65194185 26.49628247 -51.40582736 25.82320557 -50.15698242 25.15527344 C-47.68935402 23.83361893 -45.2333474 22.49156794 -42.77734375 21.1484375 C-38.8671099 19.01393356 -34.95021449 16.89243758 -31.02734375 14.78125 C-30.02509766 14.24113281 -29.02285156 13.70101562 -27.99023438 13.14453125 C-25.95204985 12.04654573 -23.91298345 10.95019571 -21.87304688 9.85546875 C-16.12941179 6.75619882 -10.53710089 3.54022915 -5.06079102 -0.01367188 C-3 -1 -3 -1 0 0 Z " fill="#874591" transform="translate(153,102)"/>
<path d="M0 0 C3.11461126 0.55048232 5.83278613 1.2238346 8.6887207 2.58227539 C9.36904861 2.90253189 10.04937653 3.22278839 10.75032043 3.55274963 C11.4682225 3.89756882 12.18612457 4.242388 12.92578125 4.59765625 C13.67337204 4.95137802 14.42096283 5.30509979 15.19120789 5.66954041 C17.56747933 6.79533071 19.93999953 7.92878765 22.3125 9.0625 C23.92749255 9.82928558 25.54272442 10.59556732 27.15820312 11.36132812 C31.10826481 13.2350604 35.05498122 15.11567487 39 17 C39 17.99 39 18.98 39 20 C38.25242432 20.41137207 37.50484863 20.82274414 36.73461914 21.24658203 C33.17672945 23.20511818 29.61944948 25.16475697 26.0625 27.125 C25.41350739 27.48259399 24.76451477 27.84018799 24.09585571 28.20861816 C13.74267775 33.91498131 3.4162457 39.66651605 -6.87670898 45.48095703 C-12.18714671 48.47029112 -17.52209616 51.32911671 -23 54 C-24.11976585 50.71351787 -23.95057383 49.13912077 -22.44873047 46.03271484 C-22.08439911 45.26446381 -21.72006775 44.49621277 -21.34469604 43.7046814 C-20.73707932 42.47027817 -20.73707932 42.47027817 -20.1171875 41.2109375 C-19.50026535 39.92323959 -19.50026535 39.92323959 -18.87088013 38.60952759 C-17.5499128 35.85923002 -16.21266325 33.11720967 -14.875 30.375 C-13.9963316 28.55129362 -13.11871545 26.72707986 -12.2421875 24.90234375 C-8.22910869 16.56718311 -4.15138697 8.26718945 0 0 Z " fill="#039EAE" transform="translate(75,70)"/>
<path d="M0 0 C2.55058187 1.84697308 3.58425515 3.40349903 4.8125 6.3125 C4.8125 10.59866677 4.21849406 12.73426604 1.75 16.25 C-1.55102289 18.56773948 -3.30465385 19.06919245 -7.25390625 18.79296875 C-10.73315017 17.92842935 -12.17358141 16.18080829 -14.1875 13.3125 C-15.31359115 9.37118098 -15.60197672 7.29415538 -14 3.5 C-10.19239928 -1.09538018 -5.68468051 -1.78661387 0 0 Z M-9.1875 3.3125 C-6.2175 3.8075 -6.2175 3.8075 -3.1875 4.3125 C-3.27 5.240625 -3.3525 6.16875 -3.4375 7.125 C-3.54053045 10.40355222 -3.54053045 10.40355222 -1.1875 12.1875 C-0.5275 12.55875 0.1325 12.93 0.8125 13.3125 C2.19392556 12.14872098 2.19392556 12.14872098 2.0625 8.9375 C2.11107846 5.45509877 2.11107846 5.45509877 0.625 3.4375 C-3.26252583 1.02455293 -5.35204809 0.75553206 -9.1875 3.3125 Z M-10.1875 3.3125 C-12.5596969 5.25708314 -12.5596969 5.25708314 -12.5 8.8125 C-12.396875 9.9675 -12.29375 11.1225 -12.1875 12.3125 C-10.7025 13.3025 -10.7025 13.3025 -9.1875 14.3125 C-9.1875 10.6825 -9.1875 7.0525 -9.1875 3.3125 C-9.5175 3.3125 -9.8475 3.3125 -10.1875 3.3125 Z M-6.1875 5.3125 C-5.1875 7.3125 -5.1875 7.3125 -5.1875 7.3125 Z M-6.1875 11.3125 C-6.1875 12.3025 -6.1875 13.2925 -6.1875 14.3125 C-7.1775 14.6425 -8.1675 14.9725 -9.1875 15.3125 C-6.28676819 15.99051034 -6.28676819 15.99051034 -3.1875 16.3125 C-2.5275 15.6525 -1.8675 14.9925 -1.1875 14.3125 C-2.8375 13.3225 -4.4875 12.3325 -6.1875 11.3125 Z " fill="#676865" transform="translate(192.1875,54.6875)"/>
<path d="M0 0 C2.62527971 1.14519605 5.25023393 2.29112781 7.875 3.4375 C8.62136719 3.76298828 9.36773437 4.08847656 10.13671875 4.42382812 C10.85214844 4.73642578 11.56757812 5.04902344 12.3046875 5.37109375 C12.96452637 5.65911865 13.62436523 5.94714355 14.30419922 6.24389648 C15.54991875 6.79932312 16.78006037 7.39003018 18 8 C18 8.99 18 9.98 18 11 C15.71125827 12.33858524 13.41930344 13.67101014 11.125 15 C10.47402344 15.3815625 9.82304688 15.763125 9.15234375 16.15625 C4.2265625 19 4.2265625 19 2 19 C2 18.01 2 17.02 2 16 C4.90600261 14.74335022 6.79604584 14 10 14 C10 13.34 10 12.68 10 12 C7.69 11.67 5.38 11.34 3 11 C3.33 10.01 3.66 9.02 4 8 C4.99 8 5.98 8 7 8 C7 7.01 7 6.02 7 5 C4.03 4.505 4.03 4.505 1 4 C0.67 2.68 0.34 1.36 0 0 Z " fill="#0A9CA8" transform="translate(96,79)"/>
<path d="M0 0 C1.11234512 -0.00021904 1.11234512 -0.00021904 2.24716187 -0.0004425 C4.70370385 0.00025539 7.16017045 0.00804206 9.61669922 0.01586914 C11.31777912 0.01773376 13.01885956 0.01915745 14.71994019 0.02015686 C19.20145139 0.02397861 23.68293029 0.03380599 28.16442871 0.04486084 C32.73575402 0.05508231 37.30708453 0.05965606 41.87841797 0.06469727 C50.85108843 0.07542854 59.82373489 0.09250088 68.79638672 0.11352539 C69.29138672 2.09352539 69.29138672 2.09352539 69.79638672 4.11352539 C68.80638672 3.12352539 68.80638672 3.12352539 67.79638672 2.11352539 C64.67808373 1.81939054 64.67808373 1.81939054 60.95996094 1.88647461 C60.2574118 1.88618256 59.55486267 1.8858905 58.83102417 1.8855896 C56.5042494 1.88698516 54.17779318 1.90255667 51.85107422 1.91821289 C50.23967667 1.92194223 48.62827685 1.92478957 47.01687622 1.92678833 C42.77205158 1.93443108 38.52736342 1.954085 34.28259277 1.97619629 C29.95257412 1.99664096 25.62253346 2.00578709 21.29248047 2.01586914 C12.79371986 2.03733035 4.29507026 2.07147394 -4.20361328 2.11352539 C-4.20361328 2.77352539 -4.20361328 3.43352539 -4.20361328 4.11352539 C-3.54361328 4.44352539 -2.88361328 4.77352539 -2.20361328 5.11352539 C-3.19361328 5.60852539 -3.19361328 5.60852539 -4.20361328 6.11352539 C-6.82861328 4.80102539 -6.82861328 4.80102539 -9.20361328 3.11352539 C-9.20361328 2.45352539 -9.20361328 1.79352539 -9.20361328 1.11352539 C-6.24383744 -0.36636253 -3.24383319 -0.0165786 0 0 Z " fill="#9EB55C" transform="translate(105.20361328125,51.886474609375)"/>
<path d="M0 0 C1.98 0.99 3.96 1.98 6 3 C5.67 3.99 5.34 4.98 5 6 C-20.41 6 -45.82 6 -72 6 C-72.33 5.01 -72.66 4.02 -73 3 C-72.34 2.34 -71.68 1.68 -71 1 C-71 1.99 -71 2.98 -71 4 C-46.58 4 -22.16 4 3 4 C2.01 3.34 1.02 2.68 0 2 C0 1.34 0 0.68 0 0 Z " fill="#B04374" transform="translate(100,167)"/>
<path d="M0 0 C0.66 0.99 1.32 1.98 2 3 C1.33333333 4.66666667 0.66666667 6.33333333 0 8 C1.87596527 11.35143175 1.87596527 11.35143175 6 13 C2.04 14.98 -1.92 16.96 -6 19 C-7.24568374 14.01726503 -5.74885974 11.60624972 -3.5625 7.25 C-3.05493164 6.20392578 -3.05493164 6.20392578 -2.53710938 5.13671875 C-1.70193542 3.41931879 -0.85234576 1.70894262 0 0 Z " fill="#1197A2" transform="translate(58,105)"/>
<path d="M0 0 C1.98 0 3.96 0 6 0 C6.12375 0.70125 6.2475 1.4025 6.375 2.125 C7.03838345 5.17656387 7.97211955 8.05340938 9 11 C5.125 10.125 5.125 10.125 4 9 C3.67 9.66 3.34 10.32 3 11 C2.01 11 1.02 11 0 11 C0 7.37 0 3.74 0 0 Z M3 2 C4 4 4 4 4 4 Z " fill="#6F6F6F" transform="translate(183,58)"/>
<path d="M0 0 C0.66 0.33 1.32 0.66 2 1 C1.34 1.66 0.68 2.32 0 3 C8.91255913 7.53096581 17.92386997 11.80910936 27 16 C26.34 16.66 25.68 17.32 25 18 C21.83205073 16.5861895 18.66588612 15.1684237 15.5 13.75 C14.613125 13.35425781 13.72625 12.95851562 12.8125 12.55078125 C7.47333914 10.15601057 2.21432853 7.65589631 -3 5 C-2.625 3.0625 -2.625 3.0625 -2 1 C-1.34 0.67 -0.68 0.34 0 0 Z " fill="#75407B" transform="translate(93,133)"/>
<path d="M0 0 C-0.61811534 4.55315948 -2.46765893 8.28459767 -4.5625 12.3125 C-5.0565332 13.28026367 -5.0565332 13.28026367 -5.56054688 14.26757812 C-6.36824255 15.84785228 -7.18337613 17.42432105 -8 19 C-9.03089037 16.32341115 -9.09652951 15.24838692 -8.0390625 12.52734375 C-7.57242188 11.67269531 -7.10578125 10.81804687 -6.625 9.9375 C-5.18619055 7.26485117 -3.9621546 4.88646379 -3 2 C-4.05960938 2.58910156 -5.11921875 3.17820312 -6.2109375 3.78515625 C-7.59872867 4.54469061 -8.98676213 5.3037824 -10.375 6.0625 C-11.42300781 6.64741211 -11.42300781 6.64741211 -12.4921875 7.24414062 C-14.29610184 8.22415178 -16.14583482 9.11875071 -18 10 C-18.66 9.67 -19.32 9.34 -20 9 C-17.23907588 7.29586336 -14.46486002 5.61469315 -11.6875 3.9375 C-10.50897461 3.20950195 -10.50897461 3.20950195 -9.30664062 2.46679688 C-8.54931641 2.01240234 -7.79199219 1.55800781 -7.01171875 1.08984375 C-6.31522217 0.66566162 -5.61872559 0.24147949 -4.90112305 -0.19555664 C-3 -1 -3 -1 0 0 Z " fill="#704377" transform="translate(153,102)"/>
<path d="M0 0 C5.03405033 0.47194222 9.48120657 2.88335384 14 5 C11 6 11 6 7.625 5.9375 C4.12232714 5.99789091 2.06617142 6.37673278 -1 8 C-1.33 8.66 -1.66 9.32 -2 10 C-2.66 10 -3.32 10 -4 10 C-3.52449439 8.51965236 -3.04448784 7.04074979 -2.5625 5.5625 C-2.29566406 4.73878906 -2.02882813 3.91507812 -1.75390625 3.06640625 C-1 1 -1 1 0 0 Z " fill="#1497A3" transform="translate(75,70)"/>
<path d="M0 0 C0.33 0 0.66 0 1 0 C1.08121924 1.60332791 1.13929134 3.20784026 1.1875 4.8125 C1.22230469 5.70582031 1.25710937 6.59914063 1.29296875 7.51953125 C1 10 1 10 -0.32421875 11.82421875 C-2 13 -2 13 -5 13 C-5.33 14.32 -5.66 15.64 -6 17 C-6.33 16.34 -6.66 15.68 -7 15 C-5.92591043 12.39525962 -4.79954367 9.90033962 -3.5625 7.375 C-3.22412109 6.66859375 -2.88574219 5.9621875 -2.53710938 5.234375 C-1.69845121 3.48618616 -0.85012153 1.74264314 0 0 Z " fill="#1499A8" transform="translate(70,80)"/>
<path d="M0 0 C1 3 1 3 0.37915039 4.80932617 C0.03875732 5.46392822 -0.30163574 6.11853027 -0.65234375 6.79296875 C-1.01650391 7.50517578 -1.38066406 8.21738281 -1.75585938 8.95117188 C-2.14580078 9.68916016 -2.53574219 10.42714844 -2.9375 11.1875 C-3.51661133 12.31188477 -3.51661133 12.31188477 -4.10742188 13.45898438 C-5.06271757 15.31060689 -6.03021577 17.15592452 -7 19 C-7.66 18.34 -8.32 17.68 -9 17 C-8.525625 16.154375 -8.05125 15.30875 -7.5625 14.4375 C-5.82791485 11.05900269 -5.82791485 11.05900269 -5.5 7.3125 C-5 4 -5 4 -3.5625 2.125 C-2 1 -2 1 0 0 Z " fill="#76447D" transform="translate(143,121)"/>
<path d="M0 0 C5.28 2.31 10.56 4.62 16 7 C16 7.33 16 7.66 16 8 C14.35 8 12.7 8 11 8 C11 7.34 11 6.68 11 6 C7.7 5.34 4.4 4.68 1 4 C0.67 2.68 0.34 1.36 0 0 Z " fill="#1A919C" transform="translate(96,79)"/>
<path d="M0 0 C2.97 0.495 2.97 0.495 6 1 C3.12050853 3.23960447 0.23257974 5.29864224 -3 7 C-3.66 6.67 -4.32 6.34 -5 6 C-3.625 4 -3.625 4 -2 2 C-1.34 2 -0.68 2 0 2 C0 1.34 0 0.68 0 0 Z " fill="#18929B" transform="translate(76,106)"/>
<path d="M0 0 C2.375 0.0625 2.375 0.0625 5 1 C6.8125 4.0625 6.8125 4.0625 8 7 C7.01 7 6.02 7 5 7 C3.95884159 5.69855198 2.96113866 4.36161311 2 3 C1.01 2.34 0.02 1.68 -1 1 C-0.67 0.67 -0.34 0.34 0 0 Z " fill="#70706F" transform="translate(189,55)"/>
<path d="M0 0 C0.33 0.99 0.66 1.98 1 3 C-0.66666667 4.66666667 -2.33333333 6.33333333 -4 8 C-4.6875 6.1875 -4.6875 6.1875 -5 4 C-3.47698387 2.0418364 -2.21773977 1.10886989 0 0 Z " fill="#7F4486" transform="translate(143,121)"/>
<path d="M0 0 C-6.75 4 -6.75 4 -9 4 C-9 3.01 -9 2.02 -9 1 C-5.57367167 -0.61798838 -3.61944899 -1.34053666 0 0 Z " fill="#189297" transform="translate(107,94)"/>
</svg>
